<?xml version="1.0" encoding="UTF-8" standalone="no"?>
<!-- Created with Inkscape (http://www.inkscape.org/) -->

<svg
   width="128"
   height="128"
   viewBox="0 0 128 128"
   version="1.1"
   id="svg1"
   inkscape:version="1.3 (0e150ed6c4, 2023-07-21)"
   sodipodi:docname="drawing.svg"
   xmlns:inkscape="http://www.inkscape.org/namespaces/inkscape"
   xmlns:sodipodi="http://sodipodi.sourceforge.net/DTD/sodipodi-0.dtd"
   xmlns="http://www.w3.org/2000/svg"
   xmlns:svg="http://www.w3.org/2000/svg">
  <sodipodi:namedview
     id="namedview1"
     pagecolor="#505050"
     bordercolor="#eeeeee"
     borderopacity="1"
     inkscape:showpageshadow="0"
     inkscape:pageopacity="0"
     inkscape:pagecheckerboard="0"
     inkscape:deskcolor="#505050"
     inkscape:document-units="px"
     showguides="true"
     showgrid="false"
     inkscape:zoom="8"
     inkscape:cx="51.5625"
     inkscape:cy="64.9375"
     inkscape:window-width="2560"
     inkscape:window-height="1377"
     inkscape:window-x="-8"
     inkscape:window-y="-8"
     inkscape:window-maximized="1"
     inkscape:current-layer="layer3">
    <inkscape:grid
       id="grid2"
       units="px"
       originx="0"
       originy="0"
       spacingx="1"
       spacingy="1"
       empcolor="#0099e5"
       empopacity="0.30196078"
       color="#0099e5"
       opacity="0.14901961"
       empspacing="5"
       dotted="false"
       gridanglex="30"
       gridanglez="30"
       visible="false" />
  </sodipodi:namedview>
  <defs
     id="defs1">
    <inkscape:path-effect
       effect="fillet_chamfer"
       id="path-effect7"
       is_visible="true"
       lpeversion="1"
       nodesatellites_param="F,0,0,1,0,4.5875,0,1 @ F,0,1,1,0,4.5875,0,1 @ F,0,1,1,0,4.5875,0,1 @ F,0,1,1,0,4.5875,0,1"
       radius="0"
       unit="px"
       method="auto"
       mode="F"
       chamfer_steps="1"
       flexible="false"
       use_knot_distance="true"
       apply_no_radius="true"
       apply_with_radius="true"
       only_selected="false"
       hide_knots="false" />
    <inkscape:path-effect
       effect="fillet_chamfer"
       id="path-effect6"
       is_visible="true"
       lpeversion="1"
       nodesatellites_param="F,0,1,1,0,5,0,1 @ F,0,0,1,0,5,0,1 @ F,0,1,1,0,5,0,1 @ F,0,1,1,0,5,0,1 @ F,0,0,1,0,0,0,1 @ F,0,1,1,0,5,0,1 @ F,0,1,1,0,5,0,1 @ F,0,0,1,0,0,0,1"
       radius="0"
       unit="px"
       method="auto"
       mode="F"
       chamfer_steps="1"
       flexible="false"
       use_knot_distance="true"
       apply_no_radius="true"
       apply_with_radius="true"
       only_selected="false"
       hide_knots="false" />
  </defs>
  <g
     inkscape:label="Layer 1"
     inkscape:groupmode="layer"
     id="layer1"
     style="display:none">
    <path
       style="fill:#000000"
       d="M 3.9830652,7.8848433 C 5.9616364,2.8582955 7.7629128,3.9424217 7.7629128,3.9424217 c 0,0 27.3937342,-1.8696021 28.8975442,0.1219305 1.503811,1.9915326 7.397121,3.8204912 7.356478,6.4623198 -0.04064,2.641829 1.50381,26.377646 0.04064,27.962744 -1.463166,1.585097 -2.88569,6.055885 -5.77138,5.608806 -2.885687,-0.447079 -27.2718,1.463167 -29.1414025,-0.08129 C 7.2751905,42.472481 3.8204911,42.269263 4.0237087,40.03387 4.2269263,37.798476 0.05798026,17.856497 3.9830652,7.8848433 Z"
       id="path4"
       sodipodi:nodetypes="scsssssss" />
  </g>
  <g
     inkscape:groupmode="layer"
     id="layer2"
     inkscape:label="Layer 2"
     style="display:none">
    <rect
       style="fill:#000000"
       id="rect4"
       width="100"
       height="120"
       x="14"
       y="4"
       ry="10" />
  </g>
  <g
     inkscape:groupmode="layer"
     id="layer3"
     inkscape:label="Layer 3">
    <path
       style="fill:#e0e0e0;fill-opacity:1"
       d="m 35.125,9.875 h 59.75 a 5,5 45 0 1 5,5 l 0,100 a 5,5 135 0 1 -5,5 h -60 a 5,5 45 0 1 -5,-5 l 0,-62.125 h 27.75 a 5,5 135 0 0 5,-5 l 0,-5.625 a 5,5 45 0 0 -5,-5 h -27.5 v -22.25 a 5,5 135 0 1 5,-5 z"
       id="path5"
       sodipodi:nodetypes="ccccccccc"
       inkscape:path-effect="#path-effect6"
       inkscape:original-d="m 30.125,9.875 h 69.75 v 110 h -70 V 52.75 h 32.75 V 37.125 h -32.5 z" />
    <path
       style="fill:#e0e0e0;fill-opacity:1"
       d="m 19.9625,40 h 35.45 A 4.5875,4.5875 45 0 1 60,44.5875 v 0.7 a 4.5875,4.5875 135 0 1 -4.5875,4.5875 h -35.45 A 4.5875,4.5875 45 0 1 15.375,45.2875 v -0.7 A 4.5875,4.5875 135 0 1 19.9625,40 Z"
       id="path6"
       sodipodi:nodetypes="ccccc"
       inkscape:path-effect="#path-effect7"
       inkscape:original-d="M 15.375,40 H 60 v 9.875 H 15.375 Z" />
  </g>
</svg>
